<svg width="48" height="48" viewBox="0 0 48 48" fill="none" xmlns="http://www.w3.org/2000/svg">
<rect x="2" y="2" width="44" height="44" rx="22" fill="white"/>
<g filter="url(#filter0_d_91_37)">
<path d="M34.1262 38.7658C25.6716 44.7743 17.2422 40.7881 14.8728 39.6335C12.1785 38.3207 8.00063 33.7592 7.00351 30.3704C6.00638 26.9817 5.94975 25.524 6.02156 25.0832C6.09336 24.6423 6.69349 24.465 7.08864 25.4152C7.28962 25.8984 8.51993 28.5894 13.5256 31.643C17.1743 33.8689 21.9354 34.189 24.3954 34.053L24.5909 34.0081C29.9662 33.4221 32.004 30.675 33.0727 29.2345C33.9298 28.079 34.5399 26.4518 34.9496 25.3586C35.1357 24.8619 35.2806 24.4753 35.3887 24.2929C35.7348 23.7092 36.3292 22.9929 37.1031 23.3656C37.8967 23.7478 38.178 25.5726 36.3992 28.8621C34.3592 32.6345 32.8563 33.589 30.9579 34.7505C29.0595 35.912 26.888 36.4218 25.1602 36.6386C23.2168 36.6999 22.6954 36.619 22.5715 36.821C22.4831 36.9651 22.5823 37.1214 22.7218 37.2064C24.2977 38.1659 30.2983 37.5379 33.3467 34.8784L33.3675 34.8918C34.6227 33.9587 37.7787 30.5051 38.664 27.4176C39.432 24.7389 40.398 24.0361 41.4177 24.6002C42.4374 25.1644 42.0062 27.8559 40.9843 30.417C39.9624 32.9781 36.81 37.2595 34.1347 38.8025L34.1262 38.7658Z" fill="#B97F73"/>
<path d="M16.5314 31.5522C18.3194 32.313 22.3035 33.4233 25.8315 32.5085C30.3538 31.3359 32.0045 28.1063 32.7252 26.6963C32.7424 26.6627 32.759 26.6301 32.7751 26.5987C33.4688 25.2461 33.3389 24.4145 33.092 23.9782C32.8451 23.5419 32.0989 22.9275 31.2702 24.0969C31.0456 24.4138 30.8133 24.8465 30.5495 25.3382C29.8398 26.6604 28.9014 28.4089 27.2669 29.4785C25.0246 30.9459 22.3465 31.6942 18.5048 30.8042C17.7764 30.6121 18.0911 30.1425 18.8158 29.8792C19.2369 29.7263 19.7314 29.6009 20.3016 29.532C22.6937 29.2432 24.9903 28.8107 25.5554 27.188C25.9281 26.1178 25.1595 25.4805 23.9546 25.2895C22.9964 25.1376 18.5335 25.7839 16.9149 26.108C15.2963 26.4321 12.0351 27.2426 11.2542 28.1335C11.9691 28.8563 14.0252 30.5524 16.53 31.5537L16.5314 31.5522Z" fill="#E5A185"/>
<path d="M26.9728 21.1418C31.6283 21.1418 35.4023 17.3035 35.4023 12.5687C35.4023 12.1186 35.4023 12.0119 35.6212 11.7892C35.7499 11.6583 35.9497 11.8224 36.0591 11.9271C40.0229 15.7169 41.5328 20.7436 41.5328 22.4778C41.3868 22.8861 40.5038 23.5913 38.1391 22.2552C35.7745 20.9191 34.2346 21.9954 33.7602 22.7005C31.921 21.3645 30.6584 22.1438 30.257 22.7005L27.8486 26.152C27.4983 24.3706 26.4255 22.4779 18.3244 24.1479C16.1427 24.4142 13.2652 25.2465 11.3558 25.7988C10.8701 25.9393 10.447 26.0617 10.1139 26.152C10.1139 26.152 9.56656 26.2853 9.01919 25.7988C8.1353 25.0133 7.14703 23.4575 6.7666 22.5458C6.74934 22.524 6.73387 22.5013 6.72022 22.4778C5.49408 20.3672 8.90078 10.6515 18.9014 8.00377C19.2598 7.9089 19.6381 7.89236 19.6381 8.33772C19.5286 8.89441 18.5434 10.7809 18.5434 12.5687C18.5434 17.3035 22.3174 21.1418 26.9728 21.1418Z" fill="#8EAFC8"/>
<ellipse cx="26.9719" cy="12.569" rx="6.45894" ry="6.56899" fill="#E5A185"/>
<g style="mix-blend-mode:multiply" opacity="0.43">
<path d="M34.1262 38.7658C25.6716 44.7743 17.2422 40.7881 14.8728 39.6335C12.1785 38.3207 8.00063 33.7592 7.00351 30.3704C6.00638 26.9817 5.94975 25.524 6.02156 25.0832C6.09336 24.6423 6.69349 24.465 7.08864 25.4152C7.28962 25.8984 8.51993 28.5894 13.5256 31.643C17.1743 33.8689 21.9354 34.189 24.3954 34.053L24.5909 34.0081C29.9662 33.4221 32.004 30.675 33.0727 29.2345C33.9298 28.079 34.5399 26.4518 34.9496 25.3586C35.1357 24.8619 35.2806 24.4753 35.3887 24.2929C35.7348 23.7092 36.3292 22.9929 37.1031 23.3656C37.8967 23.7478 38.178 25.5726 36.3992 28.8621C34.3592 32.6345 32.8563 33.589 30.9579 34.7505C29.0595 35.912 26.888 36.4218 25.1602 36.6386C23.2168 36.6999 22.6954 36.619 22.5715 36.821C22.4831 36.9651 22.5823 37.1214 22.7218 37.2064C24.2977 38.1659 30.2983 37.5379 33.3467 34.8784L33.3675 34.8918C34.6227 33.9587 37.7787 30.5051 38.664 27.4176C39.432 24.7389 40.398 24.0361 41.4177 24.6002C42.4374 25.1644 42.0062 27.8559 40.9843 30.417C39.9624 32.9781 36.81 37.2595 34.1347 38.8025L34.1262 38.7658Z" fill="#B97F73"/>
</g>
<g style="mix-blend-mode:multiply" opacity="0.43">
<path d="M16.5314 31.5522C18.3194 32.313 22.3035 33.4233 25.8315 32.5085C30.3538 31.3359 32.0045 28.1063 32.7252 26.6963C32.7424 26.6627 32.759 26.6301 32.7751 26.5987C33.4688 25.2461 33.3389 24.4145 33.092 23.9782C32.8451 23.5419 32.0989 22.9275 31.2702 24.0969C31.0456 24.4138 30.8133 24.8465 30.5495 25.3382C29.8398 26.6604 28.9014 28.4089 27.2669 29.4785C25.0246 30.9459 22.3465 31.6942 18.5048 30.8042C17.7764 30.6121 18.0911 30.1425 18.8158 29.8792C19.2369 29.7263 19.7314 29.6009 20.3016 29.532C22.6937 29.2432 24.9903 28.8107 25.5554 27.188C25.9281 26.1178 25.1595 25.4805 23.9546 25.2895C22.9964 25.1376 18.5335 25.7839 16.9149 26.108C15.2963 26.4321 12.0351 27.2426 11.2542 28.1335C11.9691 28.8563 14.0252 30.5524 16.53 31.5537L16.5314 31.5522Z" fill="#E5A185"/>
</g>
<g style="mix-blend-mode:multiply" opacity="0.43">
<path d="M26.9728 21.1418C31.6283 21.1418 35.4023 17.3035 35.4023 12.5687C35.4023 12.1186 35.4023 12.0119 35.6212 11.7892C35.7499 11.6583 35.9497 11.8224 36.0591 11.9271C40.0229 15.7169 41.5328 20.7436 41.5328 22.4778C41.3868 22.8861 40.5038 23.5913 38.1391 22.2552C35.7745 20.9191 34.2346 21.9954 33.7602 22.7005C31.921 21.3645 30.6584 22.1438 30.257 22.7005L27.8486 26.152C27.4983 24.3706 26.4255 22.4779 18.3244 24.1479C16.1427 24.4142 13.2652 25.2465 11.3558 25.7988C10.8701 25.9393 10.447 26.0617 10.1139 26.152C10.1139 26.152 9.56656 26.2853 9.01919 25.7988C8.1353 25.0133 7.14703 23.4575 6.7666 22.5458C6.74934 22.524 6.73387 22.5013 6.72022 22.4778C5.49408 20.3672 8.90078 10.6515 18.9014 8.00377C19.2598 7.9089 19.6381 7.89236 19.6381 8.33772C19.5286 8.89441 18.5434 10.7809 18.5434 12.5687C18.5434 17.3035 22.3174 21.1418 26.9728 21.1418Z" fill="#8EAFC8"/>
</g>
<g style="mix-blend-mode:multiply" opacity="0.43">
<ellipse cx="26.9719" cy="12.569" rx="6.45894" ry="6.56899" fill="#E5A185"/>
</g>
</g>
<defs>
<filter id="filter0_d_91_37" x="6" y="6" width="36" height="36" filterUnits="userSpaceOnUse" color-interpolation-filters="sRGB">
<feFlood flood-opacity="0" result="BackgroundImageFix"/>
<feColorMatrix in="SourceAlpha" type="matrix" values="0 0 0 0 0 0 0 0 0 0 0 0 0 0 0 0 0 0 127 0" result="hardAlpha"/>
<feOffset/>
<feComposite in2="hardAlpha" operator="out"/>
<feColorMatrix type="matrix" values="0 0 0 0 0 0 0 0 0 0 0 0 0 0 0 0 0 0 0.25 0"/>
<feBlend mode="normal" in2="BackgroundImageFix" result="effect1_dropShadow_91_37"/>
<feBlend mode="normal" in="SourceGraphic" in2="effect1_dropShadow_91_37" result="shape"/>
</filter>
</defs>
</svg>
