<svg width="178" height="35" viewBox="0 0 178 35" fill="none" xmlns="http://www.w3.org/2000/svg">
<path d="M36.9664 18.081C35.2399 27.6521 26.9975 30.6347 24.6583 31.4507C21.9985 32.3785 16.223 32.1566 13.3412 30.5913C10.4594 29.026 9.4688 28.1052 9.22865 27.7676C8.9885 27.43 9.27391 26.9144 10.1592 27.2765C10.6095 27.4607 13.1911 28.4121 18.5345 27.0924C22.4294 26.1304 25.8225 23.1757 27.3787 21.451L27.4801 21.2915C30.6916 17.3329 30.2588 14.1719 30.0318 12.5143C29.8497 11.1848 29.1941 9.70931 28.7535 8.71813C28.5534 8.26783 28.3975 7.91728 28.3506 7.72552C28.2005 7.11167 28.1298 6.24547 28.891 5.97606C29.6715 5.69981 31.0523 6.71268 32.0129 10.0581C33.1145 13.8947 32.7334 15.5214 32.2231 17.5471C31.7127 19.5728 30.5939 21.3516 29.5801 22.6427C28.3206 23.9749 27.9191 24.2684 27.9682 24.4835C28.0033 24.637 28.1719 24.6738 28.3206 24.637C30.0017 24.2203 33.6039 19.8183 33.9041 16.0431L33.9268 16.0382C34.1563 14.5902 34.0094 10.2213 32.5832 7.60272C31.346 5.33086 31.5326 4.22657 32.5832 3.91964C33.6339 3.61272 35.1048 5.66911 36.0954 8.03242C37.0861 10.3957 37.7765 15.3065 36.996 18.0995L36.9664 18.081Z" fill="#A8766C"/>
<path d="M20.4859 25.0337C22.1788 24.3453 25.5689 22.4269 27.3302 19.4801C29.5879 15.7028 28.5808 12.4819 28.1411 11.0757C28.1306 11.0422 28.1205 11.0097 28.1107 10.9783C27.6904 9.62784 27.06 9.16745 26.6098 9.04468C26.1595 8.92192 25.2589 9.01399 25.469 10.3338C25.526 10.6915 25.6535 11.1304 25.7984 11.6291C26.1881 12.9702 26.7034 14.7438 26.3096 16.5336C25.7692 18.989 24.4674 21.2614 21.3166 23.23C20.704 23.588 20.6075 23.07 20.92 22.4151C21.1017 22.0347 21.3504 21.6234 21.6867 21.1991C23.0976 19.4189 24.3506 17.6079 23.6679 16.1653C23.2176 15.2139 22.287 15.3058 21.3565 15.9811C20.6164 16.5182 18.0544 19.91 17.1838 21.1991C16.3133 22.4882 14.6623 25.1891 14.7223 26.294C15.6729 26.294 18.1565 26.0423 20.4859 25.0356V25.0337Z" fill="#D09983"/>
<path d="M10.8019 5.53125C17.0261 2.30324 23.2917 3.22425 26.3937 4.26779C27.4143 4.39034 27.1441 3.62285 26.6938 3.31622C25.6732 2.62118 23.018 0.183863 16.6895 0.00529685C13.4605 -0.0858144 5.9088 0.927357 1.88628 8.7539C-2.13624 16.5805 1.31592 23.7931 2.69679 25.6347C3.87056 27.2 4.43788 27.0465 4.91818 26.9545C5.39848 26.8624 5.87878 26.4327 5.87878 25.6654C5.84876 24.9901 5.57859 24.6525 5.21837 24.008C4.89822 23.4351 4.08124 21.7675 3.71743 19.9873C2.69679 14.9932 4.58797 8.75391 10.8019 5.53125Z" fill="#A8766C"/>
<path d="M15.7236 7.58836C16.6499 6.866 17.5041 7.01909 17.101 8.0891C16.7441 8.70721 16.2784 9.27868 15.8194 9.84203C15.3204 10.4543 14.8293 11.0571 14.4941 11.6997C13.7737 13.0808 13.3277 14.4319 14.254 15.1986C15.5147 16.2421 17.1658 14.7075 18.9669 12.1907C19.093 12.0146 19.262 11.8045 19.4648 11.5525C20.3979 10.3931 22.0449 8.3465 23.4998 4.64041C23.438 4.62947 23.3746 4.618 23.3094 4.6062C22.2892 4.4215 20.8188 4.15528 17.8562 4.5484C11.6123 5.37709 7.92963 8.75724 6.52785 10.8972L6.50908 10.9016C6.43606 11.0242 6.3661 11.1469 6.2991 11.2697L6.29894 11.27C5.01602 13.62 4.81374 15.9698 4.88862 17.1313L4.88806 17.1322C4.84804 18.411 5.18224 21.5335 6.83928 23.7924L6.84373 23.7985C7.22851 24.3231 8.06715 25.4664 8.91058 24.7439C9.70943 24.0596 9.2194 22.9942 8.59088 21.6277C8.34552 21.0943 8.07906 20.5149 7.85992 19.8945C7.47183 18.7957 7.42307 17.6567 7.43966 16.7025C7.24754 14.1734 8.90058 11.2699 9.75111 10.1343L9.74244 10.1364C10.6098 8.99783 11.5553 8.18063 12.4878 7.59465C12.778 7.37703 13.8283 7.10857 12.9756 8.1592C12.4279 8.71929 11.0606 10.0418 10.1114 11.8535C8.76054 14.4316 8.55041 16.7335 9.36091 19.6186C10.1714 22.5037 11.6423 22.1047 11.8525 21.9819C12.0626 21.8592 12.5129 21.3067 12.3628 20.6008C12.3163 20.3822 12.1922 20.0607 12.0402 19.6672C11.7013 18.7897 11.2242 17.5541 11.162 16.3039C11.0829 14.7121 11.4676 13.808 12.092 12.341C12.1779 12.1391 12.2684 11.9265 12.3628 11.7C12.9869 10.203 14.8625 8.33596 15.7236 7.58836Z" fill="#D09983"/>
<path d="M51.709 9.64L55.021 9.208L55.201 12.448C55.657 11.296 56.353 10.42 57.289 9.82C58.249 9.22 59.365 8.92 60.637 8.92C62.653 8.92 64.057 9.484 64.849 10.612C65.641 11.716 66.037 13.408 66.037 15.688V25.048C66.037 26.224 66.409 27.016 67.153 27.424C66.961 27.784 66.649 28.06 66.217 28.252C65.785 28.444 65.329 28.54 64.849 28.54C63.913 28.54 63.217 28.276 62.761 27.748C62.305 27.22 62.077 26.476 62.077 25.516V16.192C62.077 14.68 61.909 13.552 61.573 12.808C61.237 12.064 60.493 11.692 59.341 11.692C57.877 11.692 56.893 12.34 56.389 13.636C55.909 14.932 55.669 16.6 55.669 18.64V28H51.709V9.64ZM78.1085 8.92C80.7965 8.92 82.7885 9.796 84.0845 11.548C85.3805 13.276 86.0285 15.616 86.0285 18.568C86.0285 21.712 85.4045 24.208 84.1565 26.056C82.9085 27.88 80.8925 28.792 78.1085 28.792C75.3725 28.792 73.3685 27.916 72.0965 26.164C70.8485 24.412 70.2245 22 70.2245 18.928C70.2245 15.952 70.8725 13.54 72.1685 11.692C73.4645 9.844 75.4445 8.92 78.1085 8.92ZM78.1085 26.632C79.5965 26.632 80.5685 25.9 81.0245 24.436C81.4805 22.972 81.7085 21.076 81.7085 18.748C81.7085 16.612 81.4565 14.8 80.9525 13.312C80.4725 11.824 79.5245 11.08 78.1085 11.08C75.7325 11.08 74.5445 13.636 74.5445 18.748C74.5445 21.076 74.7605 22.972 75.1925 24.436C75.6485 25.9 76.6205 26.632 78.1085 26.632ZM112.81 9.64L107.842 28H102.946L100.102 15.076L97.366 28H92.47L87.898 9.64H92.002L95.278 25.588L98.554 9.64H102.478L105.754 25.588L109.03 9.64H112.81Z" fill="#9D6C62"/>
<path d="M125.641 26.344C125.185 27.184 124.513 27.796 123.625 28.18C122.761 28.588 121.777 28.792 120.673 28.792C119.017 28.792 117.625 28.288 116.497 27.28C115.393 26.272 114.841 24.964 114.841 23.356C114.841 19.468 118.309 17.524 125.245 17.524V14.392C125.245 13.192 125.065 12.304 124.705 11.728C124.345 11.128 123.661 10.828 122.653 10.828C121.813 10.828 121.117 11.056 120.565 11.512C120.013 11.944 119.737 12.556 119.737 13.348C119.737 13.852 119.833 14.392 120.025 14.968C119.689 15.232 119.209 15.364 118.585 15.364C117.721 15.364 117.037 15.148 116.533 14.716C116.029 14.284 115.777 13.66 115.777 12.844C115.777 11.692 116.425 10.756 117.721 10.036C119.017 9.292 120.745 8.92 122.905 8.92C124.489 8.92 125.737 9.16 126.649 9.64C127.561 10.096 128.209 10.816 128.593 11.8C129.001 12.76 129.205 14.056 129.205 15.688V25.048C129.205 26.224 129.577 27.016 130.321 27.424C130.129 27.784 129.841 28.06 129.457 28.252C129.097 28.444 128.677 28.54 128.197 28.54C127.501 28.54 126.925 28.348 126.469 27.964C126.013 27.556 125.737 27.016 125.641 26.344ZM122.077 26.38C123.133 26.38 123.925 25.984 124.453 25.192C124.981 24.376 125.245 23.368 125.245 22.168V19.324C121.189 19.324 119.161 20.62 119.161 23.212C119.161 24.172 119.413 24.94 119.917 25.516C120.445 26.092 121.165 26.38 122.077 26.38ZM138.709 6.436C138.709 9.052 138.589 10.972 138.349 12.196C138.805 11.188 139.489 10.396 140.401 9.82C141.313 9.22 142.321 8.92 143.425 8.92C145.705 8.92 147.361 9.832 148.393 11.656C149.425 13.48 149.941 15.784 149.941 18.568C149.941 21.64 149.281 24.112 147.961 25.984C146.641 27.856 144.613 28.792 141.877 28.792C140.701 28.792 139.453 28.636 138.133 28.324C136.837 28.036 135.709 27.628 134.749 27.1V2.8L138.709 2.368V6.436ZM138.709 25.552C139.765 26.272 140.881 26.632 142.057 26.632C143.521 26.632 144.481 25.888 144.937 24.4C145.393 22.912 145.621 21.028 145.621 18.748C145.621 16.708 145.393 15.028 144.937 13.708C144.505 12.364 143.605 11.692 142.237 11.692C140.845 11.692 139.909 12.352 139.429 13.672C138.949 14.968 138.709 16.624 138.709 18.64V25.552ZM158.236 2.368V25.048C158.236 26.224 158.608 27.016 159.352 27.424C159.16 27.784 158.836 28.06 158.38 28.252C157.948 28.444 157.492 28.54 157.012 28.54C156.1 28.54 155.416 28.276 154.96 27.748C154.504 27.22 154.276 26.476 154.276 25.516V2.8L158.236 2.368ZM176.846 9.64L168.674 34.948L164.714 34.48L168.278 26.272H166.478L161.906 9.64H166.01L169.43 23.86L173.102 9.64H176.846Z" fill="#BD8974"/>
</svg>
