<svg width="237" height="36" viewBox="0 0 237 36" fill="none" xmlns="http://www.w3.org/2000/svg">
<g filter="url(#filter0_d_76_58)">
<path d="M28.1262 32.7654C19.6716 38.774 11.2422 34.7878 8.87282 33.6332C6.17854 32.3203 2.00063 27.7588 1.00351 24.37C0.00638429 20.9812 -0.0502492 19.5236 0.0215563 19.0827C0.0933618 18.6418 0.693485 18.4645 1.08864 19.4147C1.28962 19.898 2.51993 22.5889 7.52556 25.6426C11.1743 27.8685 15.9354 28.1886 18.3954 28.0527L18.5909 28.0077C23.9662 27.4217 26.004 24.6746 27.0727 23.234C27.9298 22.0786 28.5399 20.4514 28.9496 19.3581C29.1357 18.8614 29.2806 18.4748 29.3887 18.2925C29.7348 17.7088 30.3292 16.9924 31.1031 17.3651C31.8967 17.7473 32.178 19.5721 30.3992 22.8617C28.3592 26.6341 26.8563 27.5886 24.9579 28.7501C23.0595 29.9116 20.888 30.4215 19.1602 30.6382C17.2168 30.6995 16.6954 30.6187 16.5715 30.8207C16.4831 30.9647 16.5823 31.1211 16.7218 31.206C18.2977 32.1656 24.2983 31.5375 27.3467 28.878L27.3675 28.8914C28.6227 27.9583 31.7787 24.5047 32.664 21.4171C33.432 18.7384 34.398 18.0356 35.4177 18.5998C36.4374 19.1639 36.0062 21.8555 34.9843 24.4166C33.9624 26.9777 30.81 31.2592 28.1347 32.8022L28.1262 32.7654Z" fill="#B97F73"/>
<path d="M10.5312 25.5518C12.3191 26.3126 16.3032 27.4229 19.8313 26.5081C24.3535 25.3355 26.0043 22.1058 26.725 20.6958C26.7421 20.6622 26.7588 20.6297 26.7749 20.5982C27.4685 19.2456 27.3386 18.4141 27.0917 17.9777C26.8449 17.5414 26.0987 16.927 25.27 18.0964C25.0453 18.4133 24.8131 18.846 24.5492 19.3377C23.8396 20.6599 22.9011 22.4085 21.2666 23.4781C19.0244 24.9455 16.3462 25.6938 12.5046 24.8038C11.7761 24.6117 12.0908 24.142 12.8155 23.8788C13.2366 23.7259 13.7312 23.6004 14.3013 23.5316C16.6935 23.2427 18.9901 22.8102 19.5552 21.1876C19.9279 20.1174 19.1592 19.4801 17.9544 19.289C16.9962 19.1371 12.5332 19.7834 10.9147 20.1075C9.29609 20.4316 6.03488 21.2422 5.25391 22.133C5.96887 22.8559 8.025 24.5519 10.5297 25.5532L10.5312 25.5518Z" fill="#DB8C6C"/>
<path d="M20.9731 15.1424C25.6285 15.1424 29.4025 11.304 29.4025 6.56922C29.4025 6.11911 29.4025 6.01242 29.6215 5.78974C29.7502 5.65886 29.9499 5.82291 30.0594 5.92758C34.0232 9.71743 35.5331 14.7442 35.5331 16.4785C35.3871 16.8867 34.504 17.5919 32.1394 16.2558C29.7748 14.9197 28.2348 15.996 27.7604 16.7012C25.9213 15.3651 24.6587 16.1445 24.2573 16.7012L21.8489 20.1527C21.4986 18.3713 20.4257 16.4785 12.3247 18.1486C10.1429 18.4148 7.26544 19.2472 5.35609 19.7995C4.87034 19.94 4.4472 20.0624 4.11417 20.1527C4.11417 20.1527 3.5668 20.2859 3.01943 19.7995C2.13555 19.0139 1.14727 17.4581 0.766844 16.5464C0.749581 16.5246 0.734113 16.502 0.720468 16.4785C-0.505677 14.3678 2.90103 4.65205 12.9017 2.00426C13.26 1.90939 13.6384 1.89285 13.6384 2.33821C13.5289 2.8949 12.5436 4.78139 12.5436 6.56922C12.5436 11.304 16.3176 15.1424 20.9731 15.1424Z" fill="#8EAFC8"/>
<ellipse cx="20.9716" cy="6.56905" rx="6.45894" ry="6.56905" fill="#E5A185"/>
</g>
<path d="M50.112 9.68L53.056 9.296L53.216 12.176C53.6213 11.152 54.24 10.3733 55.072 9.84C55.9253 9.30667 56.9173 9.04 58.048 9.04C59.84 9.04 61.088 9.54133 61.792 10.544C62.496 11.5253 62.848 13.0293 62.848 15.056V23.376C62.848 24.4213 63.1787 25.1253 63.84 25.488C63.6693 25.808 63.392 26.0533 63.008 26.224C62.624 26.3947 62.2187 26.48 61.792 26.48C60.96 26.48 60.3413 26.2453 59.936 25.776C59.5307 25.3067 59.328 24.6453 59.328 23.792V15.504C59.328 14.16 59.1787 13.1573 58.88 12.496C58.5813 11.8347 57.92 11.504 56.896 11.504C55.5947 11.504 54.72 12.08 54.272 13.232C53.8453 14.384 53.632 15.8667 53.632 17.68V26H50.112V9.68ZM73.5782 9.04C75.9676 9.04 77.7382 9.81867 78.8903 11.376C80.0422 12.912 80.6182 14.992 80.6182 17.616C80.6182 20.4107 80.0636 22.6293 78.9543 24.272C77.8449 25.8933 76.0529 26.704 73.5782 26.704C71.1462 26.704 69.3649 25.9253 68.2342 24.368C67.1249 22.8107 66.5702 20.6667 66.5702 17.936C66.5702 15.2907 67.1462 13.1467 68.2982 11.504C69.4502 9.86133 71.2102 9.04 73.5782 9.04ZM73.5782 24.784C74.9009 24.784 75.7649 24.1333 76.1702 22.832C76.5756 21.5307 76.7782 19.8453 76.7782 17.776C76.7782 15.8773 76.5542 14.2667 76.1062 12.944C75.6796 11.6213 74.8369 10.96 73.5782 10.96C71.4662 10.96 70.4102 13.232 70.4102 17.776C70.4102 19.8453 70.6022 21.5307 70.9862 22.832C71.3916 24.1333 72.2556 24.784 73.5782 24.784ZM104.424 9.68L100.008 26H95.656L93.128 14.512L90.696 26H86.344L82.28 9.68H85.928L88.84 23.856L91.752 9.68H95.24L98.152 23.856L101.064 9.68H104.424Z" fill="#9D6C62"/>
<path d="M115.829 24.528C115.424 25.2747 114.826 25.8187 114.037 26.16C113.269 26.5227 112.394 26.704 111.413 26.704C109.941 26.704 108.704 26.256 107.701 25.36C106.72 24.464 106.229 23.3013 106.229 21.872C106.229 18.416 109.312 16.688 115.477 16.688V13.904C115.477 12.8373 115.317 12.048 114.997 11.536C114.677 11.0027 114.069 10.736 113.173 10.736C112.426 10.736 111.808 10.9387 111.317 11.344C110.826 11.728 110.581 12.272 110.581 12.976C110.581 13.424 110.666 13.904 110.837 14.416C110.538 14.6507 110.112 14.768 109.557 14.768C108.789 14.768 108.181 14.576 107.733 14.192C107.285 13.808 107.061 13.2533 107.061 12.528C107.061 11.504 107.637 10.672 108.789 10.032C109.941 9.37067 111.477 9.04 113.397 9.04C114.805 9.04 115.914 9.25333 116.725 9.68C117.536 10.0853 118.112 10.7253 118.453 11.6C118.816 12.4533 118.997 13.6053 118.997 15.056V23.376C118.997 24.4213 119.328 25.1253 119.989 25.488C119.818 25.808 119.562 26.0533 119.221 26.224C118.901 26.3947 118.528 26.48 118.101 26.48C117.482 26.48 116.97 26.3093 116.565 25.968C116.16 25.6053 115.914 25.1253 115.829 24.528ZM112.661 24.56C113.6 24.56 114.304 24.208 114.773 23.504C115.242 22.7787 115.477 21.8827 115.477 20.816V18.288C111.872 18.288 110.069 19.44 110.069 21.744C110.069 22.5973 110.293 23.28 110.741 23.792C111.21 24.304 111.85 24.56 112.661 24.56ZM127.445 6.832C127.445 9.15733 127.338 10.864 127.125 11.952C127.53 11.056 128.138 10.352 128.949 9.84C129.76 9.30667 130.656 9.04 131.637 9.04C133.664 9.04 135.136 9.85067 136.053 11.472C136.97 13.0933 137.429 15.1413 137.429 17.616C137.429 20.3467 136.842 22.544 135.669 24.208C134.496 25.872 132.693 26.704 130.261 26.704C129.216 26.704 128.106 26.5653 126.933 26.288C125.781 26.032 124.778 25.6693 123.925 25.2V3.6L127.445 3.216V6.832ZM127.445 23.824C128.384 24.464 129.376 24.784 130.421 24.784C131.722 24.784 132.576 24.1227 132.981 22.8C133.386 21.4773 133.589 19.8027 133.589 17.776C133.589 15.9627 133.386 14.4693 132.981 13.296C132.597 12.1013 131.797 11.504 130.581 11.504C129.344 11.504 128.512 12.0907 128.085 13.264C127.658 14.416 127.445 15.888 127.445 17.68V23.824ZM144.802 3.216V23.376C144.802 24.4213 145.133 25.1253 145.794 25.488C145.624 25.808 145.336 26.0533 144.93 26.224C144.546 26.3947 144.141 26.48 143.714 26.48C142.904 26.48 142.296 26.2453 141.89 25.776C141.485 25.3067 141.282 24.6453 141.282 23.792V3.6L144.802 3.216ZM161.345 9.68L154.081 32.176L150.561 31.76L153.729 24.464H152.129L148.065 9.68H151.713L154.753 22.32L158.017 9.68H161.345Z" fill="#BD8974"/>
<defs>
<filter id="filter0_d_76_58" x="0" y="0" width="36" height="35.9995" filterUnits="userSpaceOnUse" color-interpolation-filters="sRGB">
<feFlood flood-opacity="0" result="BackgroundImageFix"/>
<feColorMatrix in="SourceAlpha" type="matrix" values="0 0 0 0 0 0 0 0 0 0 0 0 0 0 0 0 0 0 127 0" result="hardAlpha"/>
<feOffset/>
<feComposite in2="hardAlpha" operator="out"/>
<feColorMatrix type="matrix" values="0 0 0 0 0 0 0 0 0 0 0 0 0 0 0 0 0 0 0.25 0"/>
<feBlend mode="normal" in2="BackgroundImageFix" result="effect1_dropShadow_76_58"/>
<feBlend mode="normal" in="SourceGraphic" in2="effect1_dropShadow_76_58" result="shape"/>
</filter>
</defs>
</svg>
